<svg xmlns="http://www.w3.org/2000/svg" viewBox="0 0 64 64">
  <defs>
    <linearGradient id="ocean" x1="8" y1="6" x2="56" y2="58" gradientUnits="userSpaceOnUse">
      <stop stop-color="#53d7ff"/>
      <stop offset="1" stop-color="#3159d9"/>
    </linearGradient>
    <linearGradient id="land" x1="15" y1="13" x2="50" y2="51" gradientUnits="userSpaceOnUse">
      <stop stop-color="#d9ff78"/>
      <stop offset="1" stop-color="#3bd47a"/>
    </linearGradient>
  </defs>
  <circle cx="32" cy="32" r="29" fill="url(#ocean)"/>
  <path fill="url(#land)" d="M12 22l8-8 9 2 2 7-5 5-8-1-6 5zm22-8 10 3 7 8-3 7-8-2-5-7zm-4 19 7 2 4 8-6 9-10-3-2-8zm-17-2 8 1 4 6-5 7-8-4z"/>
  <path fill="none" stroke="#e8fbff" stroke-linecap="round" stroke-opacity=".65" stroke-width="2" d="M8 32h48M32 4c8 8 10 18 10 28S40 52 32 60M32 4c-8 8-10 18-10 28s2 20 10 28"/>
  <circle cx="32" cy="32" r="29" fill="none" stroke="#fff" stroke-opacity=".7" stroke-width="2"/>
</svg>
